<svg xmlns="http://www.w3.org/2000/svg" xmlns:xlink="http://www.w3.org/1999/xlink" width="500" zoomAndPan="magnify" viewBox="0 0 375 374.999991" height="500" preserveAspectRatio="xMidYMid meet" version="1.0"><defs><g/><clipPath id="ba158c7c7b"><path d="M 123.121094 168.125 L 150 168.125 L 150 186 L 123.121094 186 Z M 123.121094 168.125 " clip-rule="nonzero"/></clipPath><clipPath id="380745aecd"><path d="M 136.8125 168.125 C 129.253906 168.125 123.128906 174.308594 123.128906 181.941406 C 123.128906 183.050781 123.304688 184.230469 123.617188 185.457031 C 127.269531 185.949219 131 185.800781 134.601562 185 C 139.996094 183.792969 146.175781 180.960938 149.6875 177.265625 C 147.785156 171.933594 142.742188 168.125 136.8125 168.125 Z M 127.402344 177.035156 L 127.398438 176.976562 C 127.398438 175.714844 128.410156 174.691406 129.660156 174.691406 C 129.921875 174.691406 130.175781 174.738281 130.410156 174.824219 C 130.652344 174.164062 131.277344 173.695312 132.011719 173.695312 C 132.835938 173.695312 133.527344 174.289062 133.6875 175.078125 C 133.726562 175.078125 133.765625 175.074219 133.808594 175.074219 C 134.9375 175.074219 135.867188 175.929688 135.996094 177.035156 Z M 136.601562 180.28125 L 136.601562 180.253906 C 136.601562 179.621094 137.105469 179.109375 137.730469 179.109375 C 137.863281 179.109375 137.988281 179.132812 138.105469 179.175781 C 138.226562 178.847656 138.539062 178.613281 138.90625 178.613281 C 139.320312 178.613281 139.664062 178.910156 139.746094 179.300781 C 139.765625 179.300781 139.785156 179.300781 139.804688 179.300781 C 140.371094 179.300781 140.835938 179.726562 140.898438 180.28125 Z M 136.601562 180.28125 " clip-rule="nonzero"/></clipPath><linearGradient x1="166.613459" gradientTransform="matrix(0.111052, 0, 0, 0.112162, 123.127985, 168.123316)" y1="198.551998" x2="44.780424" gradientUnits="userSpaceOnUse" y2="-24.463531" id="c1482d7819"><stop stop-opacity="1" stop-color="rgb(5.099487%, 43.499756%, 89.7995%)" offset="0"/><stop stop-opacity="1" stop-color="rgb(5.099487%, 43.499756%, 89.7995%)" offset="0.25"/><stop stop-opacity="1" stop-color="rgb(5.099487%, 43.499756%, 89.7995%)" offset="0.28125"/><stop stop-opacity="1" stop-color="rgb(5.099487%, 43.534851%, 89.807129%)" offset="0.289062"/><stop stop-opacity="1" stop-color="rgb(5.099487%, 43.746948%, 89.849854%)" offset="0.296875"/><stop stop-opacity="1" stop-color="rgb(5.099487%, 44.099426%, 89.920044%)" offset="0.304687"/><stop stop-opacity="1" stop-color="rgb(5.099487%, 44.451904%, 89.99176%)" offset="0.3125"/><stop stop-opacity="1" stop-color="rgb(5.099487%, 44.804382%, 90.063477%)" offset="0.320312"/><stop stop-opacity="1" stop-color="rgb(5.099487%, 45.15686%, 90.135193%)" offset="0.328125"/><stop stop-opacity="1" stop-color="rgb(5.099487%, 45.509338%, 90.206909%)" offset="0.335938"/><stop stop-opacity="1" stop-color="rgb(5.099487%, 45.861816%, 90.278625%)" offset="0.34375"/><stop stop-opacity="1" stop-color="rgb(5.099487%, 46.214294%, 90.350342%)" offset="0.351562"/><stop stop-opacity="1" stop-color="rgb(5.099487%, 46.566772%, 90.420532%)" offset="0.359375"/><stop stop-opacity="1" stop-color="rgb(5.099487%, 46.91925%, 90.492249%)" offset="0.367188"/><stop stop-opacity="1" stop-color="rgb(5.099487%, 47.270203%, 90.563965%)" offset="0.375"/><stop stop-opacity="1" stop-color="rgb(5.099487%, 47.622681%, 90.635681%)" offset="0.382812"/><stop stop-opacity="1" stop-color="rgb(5.099487%, 47.975159%, 90.707397%)" offset="0.390625"/><stop stop-opacity="1" stop-color="rgb(5.099487%, 48.327637%, 90.779114%)" offset="0.398438"/><stop stop-opacity="1" stop-color="rgb(5.099487%, 48.680115%, 90.85083%)" offset="0.40625"/><stop stop-opacity="1" stop-color="rgb(5.099487%, 49.032593%, 90.921021%)" offset="0.414062"/><stop stop-opacity="1" stop-color="rgb(5.099487%, 49.385071%, 90.992737%)" offset="0.421875"/><stop stop-opacity="1" stop-color="rgb(5.099487%, 49.737549%, 91.064453%)" offset="0.429688"/><stop stop-opacity="1" stop-color="rgb(5.099487%, 50.090027%, 91.136169%)" offset="0.4375"/><stop stop-opacity="1" stop-color="rgb(5.099487%, 50.442505%, 91.207886%)" offset="0.445312"/><stop stop-opacity="1" stop-color="rgb(5.099487%, 50.794983%, 91.279602%)" offset="0.451191"/><stop stop-opacity="1" stop-color="rgb(5.099487%, 50.970459%, 91.316223%)" offset="0.453125"/><stop stop-opacity="1" stop-color="rgb(5.099487%, 51.145935%, 91.351318%)" offset="0.460938"/><stop stop-opacity="1" stop-color="rgb(5.099487%, 51.498413%, 91.423035%)" offset="0.46875"/><stop stop-opacity="1" stop-color="rgb(5.099487%, 51.850891%, 91.493225%)" offset="0.476562"/><stop stop-opacity="1" stop-color="rgb(5.099487%, 52.203369%, 91.564941%)" offset="0.484375"/><stop stop-opacity="1" stop-color="rgb(5.099487%, 52.555847%, 91.636658%)" offset="0.492188"/><stop stop-opacity="1" stop-color="rgb(5.099487%, 52.908325%, 91.708374%)" offset="0.5"/><stop stop-opacity="1" stop-color="rgb(5.099487%, 53.260803%, 91.78009%)" offset="0.507812"/><stop stop-opacity="1" stop-color="rgb(5.099487%, 53.613281%, 91.851807%)" offset="0.515625"/><stop stop-opacity="1" stop-color="rgb(5.099487%, 53.965759%, 91.923523%)" offset="0.523438"/><stop stop-opacity="1" stop-color="rgb(5.099487%, 54.318237%, 91.993713%)" offset="0.53125"/><stop stop-opacity="1" stop-color="rgb(5.099487%, 54.669189%, 92.06543%)" offset="0.539062"/><stop stop-opacity="1" stop-color="rgb(5.099487%, 55.021667%, 92.137146%)" offset="0.546875"/><stop stop-opacity="1" stop-color="rgb(5.099487%, 55.374146%, 92.208862%)" offset="0.548809"/><stop stop-opacity="1" stop-color="rgb(5.099487%, 55.551147%, 92.245483%)" offset="0.554688"/><stop stop-opacity="1" stop-color="rgb(5.099487%, 55.726624%, 92.280579%)" offset="0.5625"/><stop stop-opacity="1" stop-color="rgb(5.099487%, 56.079102%, 92.352295%)" offset="0.570312"/><stop stop-opacity="1" stop-color="rgb(5.099487%, 56.43158%, 92.424011%)" offset="0.578125"/><stop stop-opacity="1" stop-color="rgb(5.099487%, 56.784058%, 92.494202%)" offset="0.585938"/><stop stop-opacity="1" stop-color="rgb(5.099487%, 57.136536%, 92.565918%)" offset="0.59375"/><stop stop-opacity="1" stop-color="rgb(5.099487%, 57.489014%, 92.637634%)" offset="0.601562"/><stop stop-opacity="1" stop-color="rgb(5.099487%, 57.841492%, 92.709351%)" offset="0.609375"/><stop stop-opacity="1" stop-color="rgb(5.099487%, 58.19397%, 92.781067%)" offset="0.617188"/><stop stop-opacity="1" stop-color="rgb(5.099487%, 58.544922%, 92.852783%)" offset="0.625"/><stop stop-opacity="1" stop-color="rgb(5.099487%, 58.8974%, 92.9245%)" offset="0.632812"/><stop stop-opacity="1" stop-color="rgb(5.099487%, 59.249878%, 92.99469%)" offset="0.640625"/><stop stop-opacity="1" stop-color="rgb(5.099487%, 59.602356%, 93.066406%)" offset="0.648438"/><stop stop-opacity="1" stop-color="rgb(5.099487%, 59.954834%, 93.138123%)" offset="0.65625"/><stop stop-opacity="1" stop-color="rgb(5.099487%, 60.307312%, 93.209839%)" offset="0.664062"/><stop stop-opacity="1" stop-color="rgb(5.099487%, 60.65979%, 93.281555%)" offset="0.671875"/><stop stop-opacity="1" stop-color="rgb(5.099487%, 61.012268%, 93.353271%)" offset="0.679688"/><stop stop-opacity="1" stop-color="rgb(5.099487%, 61.364746%, 93.424988%)" offset="0.6875"/><stop stop-opacity="1" stop-color="rgb(5.099487%, 61.717224%, 93.496704%)" offset="0.695312"/><stop stop-opacity="1" stop-color="rgb(5.099487%, 62.069702%, 93.566895%)" offset="0.703125"/><stop stop-opacity="1" stop-color="rgb(5.099487%, 62.420654%, 93.638611%)" offset="0.710938"/><stop stop-opacity="1" stop-color="rgb(5.099487%, 62.773132%, 93.710327%)" offset="0.71875"/><stop stop-opacity="1" stop-color="rgb(5.099487%, 63.12561%, 93.782043%)" offset="0.726562"/><stop stop-opacity="1" stop-color="rgb(5.099487%, 63.478088%, 93.85376%)" offset="0.734375"/><stop stop-opacity="1" stop-color="rgb(5.099487%, 63.830566%, 93.925476%)" offset="0.742188"/><stop stop-opacity="1" stop-color="rgb(5.099487%, 64.183044%, 93.997192%)" offset="0.75"/><stop stop-opacity="1" stop-color="rgb(5.099487%, 64.535522%, 94.067383%)" offset="0.757812"/><stop stop-opacity="1" stop-color="rgb(5.099487%, 64.888%, 94.139099%)" offset="0.765625"/><stop stop-opacity="1" stop-color="rgb(5.099487%, 65.240479%, 94.210815%)" offset="0.773438"/><stop stop-opacity="1" stop-color="rgb(5.099487%, 65.592957%, 94.282532%)" offset="0.78125"/><stop stop-opacity="1" stop-color="rgb(5.099487%, 65.943909%, 94.354248%)" offset="0.789062"/><stop stop-opacity="1" stop-color="rgb(5.099487%, 66.296387%, 94.425964%)" offset="0.796875"/><stop stop-opacity="1" stop-color="rgb(5.099487%, 66.648865%, 94.497681%)" offset="0.804688"/><stop stop-opacity="1" stop-color="rgb(5.099487%, 67.001343%, 94.567871%)" offset="0.8125"/><stop stop-opacity="1" stop-color="rgb(5.099487%, 67.353821%, 94.639587%)" offset="0.820312"/><stop stop-opacity="1" stop-color="rgb(5.099487%, 67.706299%, 94.711304%)" offset="0.828125"/><stop stop-opacity="1" stop-color="rgb(5.099487%, 68.058777%, 94.78302%)" offset="0.835938"/><stop stop-opacity="1" stop-color="rgb(5.099487%, 68.411255%, 94.854736%)" offset="0.84375"/><stop stop-opacity="1" stop-color="rgb(5.099487%, 68.763733%, 94.926453%)" offset="0.851562"/><stop stop-opacity="1" stop-color="rgb(5.099487%, 69.116211%, 94.998169%)" offset="0.859375"/><stop stop-opacity="1" stop-color="rgb(5.099487%, 69.468689%, 95.068359%)" offset="0.867188"/><stop stop-opacity="1" stop-color="rgb(5.099487%, 69.819641%, 95.140076%)" offset="0.875"/><stop stop-opacity="1" stop-color="rgb(5.099487%, 70.172119%, 95.211792%)" offset="0.882812"/><stop stop-opacity="1" stop-color="rgb(5.099487%, 70.474243%, 95.272827%)" offset="0.890625"/><stop stop-opacity="1" stop-color="rgb(5.099487%, 70.599365%, 95.298767%)" offset="0.90625"/><stop stop-opacity="1" stop-color="rgb(5.099487%, 70.599365%, 95.298767%)" offset="0.9375"/><stop stop-opacity="1" stop-color="rgb(5.099487%, 70.599365%, 95.298767%)" offset="1"/></linearGradient><clipPath id="eb0bcdce9f"><path d="M 128 178 L 151 178 L 151 207.125 L 128 207.125 Z M 128 178 " clip-rule="nonzero"/></clipPath><clipPath id="56466225dc"><path d="M 150.492188 181.941406 C 150.492188 191.554688 136.808594 207.125 136.808594 207.125 C 136.808594 207.125 132.554688 202.320312 128.789062 196.386719 C 132.453125 194.960938 135.996094 193.277344 139.261719 191.089844 C 143.855469 188.007812 147.878906 183.792969 150.125 178.761719 C 150.367188 179.785156 150.492188 180.847656 150.492188 181.941406 Z M 150.492188 181.941406 " clip-rule="nonzero"/></clipPath><linearGradient x1="207.256407" gradientTransform="matrix(0.111052, 0, 0, 0.112162, 123.127985, 168.123316)" y1="360.323096" x2="115.080004" gradientUnits="userSpaceOnUse" y2="74.190399" id="01c3773485"><stop stop-opacity="1" stop-color="rgb(0%, 88.198853%, 57.998657%)" offset="0"/><stop stop-opacity="1" stop-color="rgb(0%, 88.198853%, 57.998657%)" offset="0.0625"/><stop stop-opacity="1" stop-color="rgb(0.012207%, 88.052368%, 58.123779%)" offset="0.078125"/><stop stop-opacity="1" stop-color="rgb(0.0366211%, 87.757874%, 58.375549%)" offset="0.0859375"/><stop stop-opacity="1" stop-color="rgb(0.0610352%, 87.460327%, 58.628845%)" offset="0.09375"/><stop stop-opacity="1" stop-color="rgb(0.0854492%, 87.161255%, 58.883667%)" offset="0.101562"/><stop stop-opacity="1" stop-color="rgb(0.111389%, 86.863708%, 59.138489%)" offset="0.109375"/><stop stop-opacity="1" stop-color="rgb(0.135803%, 86.564636%, 59.393311%)" offset="0.117187"/><stop stop-opacity="1" stop-color="rgb(0.160217%, 86.26709%, 59.648132%)" offset="0.125"/><stop stop-opacity="1" stop-color="rgb(0.186157%, 85.969543%, 59.901428%)" offset="0.132812"/><stop stop-opacity="1" stop-color="rgb(0.210571%, 85.670471%, 60.15625%)" offset="0.140625"/><stop stop-opacity="1" stop-color="rgb(0.234985%, 85.372925%, 60.411072%)" offset="0.148438"/><stop stop-opacity="1" stop-color="rgb(0.260925%, 85.073853%, 60.665894%)" offset="0.15625"/><stop stop-opacity="1" stop-color="rgb(0.285339%, 84.776306%, 60.920715%)" offset="0.164062"/><stop stop-opacity="1" stop-color="rgb(0.309753%, 84.47876%, 61.174011%)" offset="0.171875"/><stop stop-opacity="1" stop-color="rgb(0.335693%, 84.179688%, 61.428833%)" offset="0.179687"/><stop stop-opacity="1" stop-color="rgb(0.360107%, 83.882141%, 61.683655%)" offset="0.1875"/><stop stop-opacity="1" stop-color="rgb(0.384521%, 83.583069%, 61.938477%)" offset="0.195312"/><stop stop-opacity="1" stop-color="rgb(0.410461%, 83.285522%, 62.191772%)" offset="0.19934"/><stop stop-opacity="1" stop-color="rgb(0.422668%, 83.137512%, 62.319946%)" offset="0.203125"/><stop stop-opacity="1" stop-color="rgb(0.434875%, 82.987976%, 62.446594%)" offset="0.210937"/><stop stop-opacity="1" stop-color="rgb(0.45929%, 82.688904%, 62.701416%)" offset="0.21875"/><stop stop-opacity="1" stop-color="rgb(0.485229%, 82.391357%, 62.956238%)" offset="0.226562"/><stop stop-opacity="1" stop-color="rgb(0.509644%, 82.092285%, 63.21106%)" offset="0.234375"/><stop stop-opacity="1" stop-color="rgb(0.535583%, 81.794739%, 63.464355%)" offset="0.242187"/><stop stop-opacity="1" stop-color="rgb(0.559998%, 81.497192%, 63.719177%)" offset="0.25"/><stop stop-opacity="1" stop-color="rgb(0.584412%, 81.19812%, 63.973999%)" offset="0.257812"/><stop stop-opacity="1" stop-color="rgb(0.610352%, 80.900574%, 64.228821%)" offset="0.265625"/><stop stop-opacity="1" stop-color="rgb(0.634766%, 80.601501%, 64.483643%)" offset="0.273437"/><stop stop-opacity="1" stop-color="rgb(0.65918%, 80.303955%, 64.736938%)" offset="0.28125"/><stop stop-opacity="1" stop-color="rgb(0.68512%, 80.006409%, 64.99176%)" offset="0.289062"/><stop stop-opacity="1" stop-color="rgb(0.709534%, 79.707336%, 65.246582%)" offset="0.296875"/><stop stop-opacity="1" stop-color="rgb(0.733948%, 79.40979%, 65.501404%)" offset="0.304687"/><stop stop-opacity="1" stop-color="rgb(0.759888%, 79.110718%, 65.7547%)" offset="0.3125"/><stop stop-opacity="1" stop-color="rgb(0.784302%, 78.813171%, 66.009521%)" offset="0.320312"/><stop stop-opacity="1" stop-color="rgb(0.808716%, 78.514099%, 66.264343%)" offset="0.328125"/><stop stop-opacity="1" stop-color="rgb(0.834656%, 78.216553%, 66.519165%)" offset="0.335938"/><stop stop-opacity="1" stop-color="rgb(0.85907%, 77.919006%, 66.773987%)" offset="0.34375"/><stop stop-opacity="1" stop-color="rgb(0.883484%, 77.619934%, 67.027283%)" offset="0.351562"/><stop stop-opacity="1" stop-color="rgb(0.909424%, 77.322388%, 67.282104%)" offset="0.359375"/><stop stop-opacity="1" stop-color="rgb(0.933838%, 77.023315%, 67.536926%)" offset="0.367188"/><stop stop-opacity="1" stop-color="rgb(0.959778%, 76.725769%, 67.791748%)" offset="0.375"/><stop stop-opacity="1" stop-color="rgb(0.984192%, 76.428223%, 68.04657%)" offset="0.382812"/><stop stop-opacity="1" stop-color="rgb(1.008606%, 76.12915%, 68.299866%)" offset="0.390625"/><stop stop-opacity="1" stop-color="rgb(1.034546%, 75.831604%, 68.554688%)" offset="0.398438"/><stop stop-opacity="1" stop-color="rgb(1.05896%, 75.532532%, 68.809509%)" offset="0.40625"/><stop stop-opacity="1" stop-color="rgb(1.083374%, 75.234985%, 69.064331%)" offset="0.414063"/><stop stop-opacity="1" stop-color="rgb(1.109314%, 74.937439%, 69.317627%)" offset="0.421875"/><stop stop-opacity="1" stop-color="rgb(1.133728%, 74.638367%, 69.572449%)" offset="0.429688"/><stop stop-opacity="1" stop-color="rgb(1.158142%, 74.34082%, 69.827271%)" offset="0.4375"/><stop stop-opacity="1" stop-color="rgb(1.184082%, 74.041748%, 70.082092%)" offset="0.445313"/><stop stop-opacity="1" stop-color="rgb(1.208496%, 73.744202%, 70.336914%)" offset="0.453125"/><stop stop-opacity="1" stop-color="rgb(1.23291%, 73.446655%, 70.59021%)" offset="0.460938"/><stop stop-opacity="1" stop-color="rgb(1.25885%, 73.147583%, 70.845032%)" offset="0.46875"/><stop stop-opacity="1" stop-color="rgb(1.283264%, 72.850037%, 71.099854%)" offset="0.476563"/><stop stop-opacity="1" stop-color="rgb(1.307678%, 72.550964%, 71.354675%)" offset="0.484375"/><stop stop-opacity="1" stop-color="rgb(1.333618%, 72.253418%, 71.609497%)" offset="0.492188"/><stop stop-opacity="1" stop-color="rgb(1.358032%, 71.955872%, 71.862793%)" offset="0.5"/><stop stop-opacity="1" stop-color="rgb(1.382446%, 71.656799%, 72.117615%)" offset="0.507812"/><stop stop-opacity="1" stop-color="rgb(1.408386%, 71.359253%, 72.372437%)" offset="0.515625"/><stop stop-opacity="1" stop-color="rgb(1.4328%, 71.060181%, 72.627258%)" offset="0.523437"/><stop stop-opacity="1" stop-color="rgb(1.45874%, 70.762634%, 72.88208%)" offset="0.53125"/><stop stop-opacity="1" stop-color="rgb(1.483154%, 70.465088%, 73.135376%)" offset="0.539062"/><stop stop-opacity="1" stop-color="rgb(1.507568%, 70.166016%, 73.390198%)" offset="0.546875"/><stop stop-opacity="1" stop-color="rgb(1.533508%, 69.868469%, 73.64502%)" offset="0.554688"/><stop stop-opacity="1" stop-color="rgb(1.557922%, 69.569397%, 73.899841%)" offset="0.5625"/><stop stop-opacity="1" stop-color="rgb(1.582336%, 69.271851%, 74.153137%)" offset="0.570312"/><stop stop-opacity="1" stop-color="rgb(1.608276%, 68.974304%, 74.407959%)" offset="0.578125"/><stop stop-opacity="1" stop-color="rgb(1.63269%, 68.675232%, 74.662781%)" offset="0.585938"/><stop stop-opacity="1" stop-color="rgb(1.657104%, 68.377686%, 74.917603%)" offset="0.59375"/><stop stop-opacity="1" stop-color="rgb(1.683044%, 68.078613%, 75.172424%)" offset="0.601562"/><stop stop-opacity="1" stop-color="rgb(1.707458%, 67.781067%, 75.42572%)" offset="0.609375"/><stop stop-opacity="1" stop-color="rgb(1.731873%, 67.483521%, 75.680542%)" offset="0.617188"/><stop stop-opacity="1" stop-color="rgb(1.757812%, 67.184448%, 75.935364%)" offset="0.625"/><stop stop-opacity="1" stop-color="rgb(1.782227%, 66.886902%, 76.190186%)" offset="0.632812"/><stop stop-opacity="1" stop-color="rgb(1.806641%, 66.58783%, 76.445007%)" offset="0.640625"/><stop stop-opacity="1" stop-color="rgb(1.832581%, 66.290283%, 76.698303%)" offset="0.648438"/><stop stop-opacity="1" stop-color="rgb(1.856995%, 65.992737%, 76.953125%)" offset="0.65625"/><stop stop-opacity="1" stop-color="rgb(1.882935%, 65.693665%, 77.207947%)" offset="0.664062"/><stop stop-opacity="1" stop-color="rgb(1.907349%, 65.396118%, 77.462769%)" offset="0.671875"/><stop stop-opacity="1" stop-color="rgb(1.931763%, 65.097046%, 77.716064%)" offset="0.679688"/><stop stop-opacity="1" stop-color="rgb(1.957703%, 64.7995%, 77.970886%)" offset="0.6875"/><stop stop-opacity="1" stop-color="rgb(1.983643%, 64.474487%, 78.248596%)" offset="0.75"/><stop stop-opacity="1" stop-color="rgb(1.998901%, 64.299011%, 78.399658%)" offset="0.80066"/><stop stop-opacity="1" stop-color="rgb(1.998901%, 64.299011%, 78.399658%)" offset="1"/></linearGradient><clipPath id="5b08daaf76"><path d="M 150 168.125 L 158.371094 168.125 L 158.371094 177 L 150 177 Z M 150 168.125 " clip-rule="nonzero"/></clipPath><clipPath id="d4d4a25c59"><path d="M 158.363281 168.980469 L 158.289062 169.8125 C 158.253906 170.015625 158.109375 170.296875 157.960938 170.441406 L 157.039062 171.351562 C 156.894531 171.496094 156.824219 171.773438 156.886719 171.972656 L 157.851562 175.140625 C 157.910156 175.335938 157.90625 175.65625 157.839844 175.851562 L 157.832031 175.878906 C 157.765625 176.074219 157.621094 176.09375 157.507812 175.917969 L 155.683594 173.070312 C 155.570312 172.898438 155.355469 172.867188 155.199219 173 L 153.386719 174.601562 C 153.234375 174.738281 153.140625 175.011719 153.179688 175.214844 L 153.34375 176.078125 C 153.382812 176.28125 153.371094 176.578125 153.316406 176.738281 C 153.265625 176.902344 153.128906 176.894531 153.015625 176.726562 L 152.414062 175.828125 C 152.296875 175.660156 152.117188 175.601562 152.007812 175.703125 C 151.894531 175.804688 151.746094 175.890625 151.667969 175.894531 C 151.589844 175.898438 151.53125 175.851562 151.535156 175.789062 C 151.539062 175.722656 151.597656 175.5625 151.675781 175.429688 C 151.75 175.292969 151.660156 175.109375 151.476562 175.019531 L 151.425781 174.996094 C 151.425781 174.988281 151.429688 174.984375 151.429688 174.980469 C 151.425781 174.984375 151.425781 174.988281 151.421875 174.992188 L 150.738281 174.648438 C 150.554688 174.558594 150.453125 174.421875 150.511719 174.347656 C 150.570312 174.273438 150.78125 174.222656 150.988281 174.234375 L 152.203125 174.300781 C 152.410156 174.3125 152.664062 174.183594 152.777344 174.007812 L 154.023438 172.082031 C 154.132812 171.910156 154.082031 171.6875 153.902344 171.585938 L 151.113281 170.019531 C 150.933594 169.921875 150.902344 169.777344 151.042969 169.699219 C 151.183594 169.625 151.457031 169.601562 151.660156 169.644531 L 155.109375 170.320312 C 155.308594 170.367188 155.578125 170.28125 155.714844 170.125 L 156.625 169.113281 C 156.761719 168.957031 157.035156 168.804688 157.238281 168.769531 L 158.058594 168.671875 C 158.257812 168.636719 158.394531 168.777344 158.363281 168.980469 Z M 158.363281 168.980469 " clip-rule="nonzero"/></clipPath><linearGradient x1="274.569612" gradientTransform="matrix(0.111052, 0, 0, 0.112162, 123.127985, 168.123316)" y1="-1.695613" x2="293.366285" gradientUnits="userSpaceOnUse" y2="83.560928" id="56344aa3a9"><stop stop-opacity="1" stop-color="rgb(5.099487%, 44.961548%, 90.09552%)" offset="0"/><stop stop-opacity="1" stop-color="rgb(5.099487%, 45.153809%, 90.135193%)" offset="0.015625"/><stop stop-opacity="1" stop-color="rgb(5.099487%, 45.539856%, 90.213013%)" offset="0.03125"/><stop stop-opacity="1" stop-color="rgb(5.099487%, 45.927429%, 90.292358%)" offset="0.046875"/><stop stop-opacity="1" stop-color="rgb(5.099487%, 46.313477%, 90.370178%)" offset="0.0625"/><stop stop-opacity="1" stop-color="rgb(5.099487%, 46.699524%, 90.447998%)" offset="0.078125"/><stop stop-opacity="1" stop-color="rgb(5.099487%, 47.087097%, 90.527344%)" offset="0.09375"/><stop stop-opacity="1" stop-color="rgb(5.099487%, 47.473145%, 90.605164%)" offset="0.109375"/><stop stop-opacity="1" stop-color="rgb(5.099487%, 47.859192%, 90.684509%)" offset="0.125"/><stop stop-opacity="1" stop-color="rgb(5.099487%, 48.246765%, 90.762329%)" offset="0.140625"/><stop stop-opacity="1" stop-color="rgb(5.099487%, 48.632812%, 90.840149%)" offset="0.15625"/><stop stop-opacity="1" stop-color="rgb(5.099487%, 49.01886%, 90.919495%)" offset="0.171875"/><stop stop-opacity="1" stop-color="rgb(5.099487%, 49.406433%, 90.997314%)" offset="0.175845"/><stop stop-opacity="1" stop-color="rgb(5.099487%, 49.60022%, 91.036987%)" offset="0.1875"/><stop stop-opacity="1" stop-color="rgb(5.099487%, 49.79248%, 91.07666%)" offset="0.203125"/><stop stop-opacity="1" stop-color="rgb(5.099487%, 50.180054%, 91.15448%)" offset="0.21875"/><stop stop-opacity="1" stop-color="rgb(5.099487%, 50.566101%, 91.233826%)" offset="0.234375"/><stop stop-opacity="1" stop-color="rgb(5.099487%, 50.952148%, 91.311646%)" offset="0.25"/><stop stop-opacity="1" stop-color="rgb(5.099487%, 51.339722%, 91.389465%)" offset="0.265625"/><stop stop-opacity="1" stop-color="rgb(5.099487%, 51.725769%, 91.468811%)" offset="0.28125"/><stop stop-opacity="1" stop-color="rgb(5.099487%, 52.111816%, 91.546631%)" offset="0.296875"/><stop stop-opacity="1" stop-color="rgb(5.099487%, 52.49939%, 91.625977%)" offset="0.3125"/><stop stop-opacity="1" stop-color="rgb(5.099487%, 52.885437%, 91.703796%)" offset="0.328125"/><stop stop-opacity="1" stop-color="rgb(5.099487%, 53.271484%, 91.781616%)" offset="0.34375"/><stop stop-opacity="1" stop-color="rgb(5.099487%, 53.659058%, 91.860962%)" offset="0.359375"/><stop stop-opacity="1" stop-color="rgb(5.099487%, 54.045105%, 91.938782%)" offset="0.375"/><stop stop-opacity="1" stop-color="rgb(5.099487%, 54.431152%, 92.018127%)" offset="0.390625"/><stop stop-opacity="1" stop-color="rgb(5.099487%, 54.818726%, 92.095947%)" offset="0.40625"/><stop stop-opacity="1" stop-color="rgb(5.099487%, 55.204773%, 92.175293%)" offset="0.421875"/><stop stop-opacity="1" stop-color="rgb(5.099487%, 55.59082%, 92.253113%)" offset="0.4375"/><stop stop-opacity="1" stop-color="rgb(5.099487%, 55.978394%, 92.330933%)" offset="0.453125"/><stop stop-opacity="1" stop-color="rgb(5.099487%, 56.364441%, 92.410278%)" offset="0.46875"/><stop stop-opacity="1" stop-color="rgb(5.099487%, 56.750488%, 92.488098%)" offset="0.484375"/><stop stop-opacity="1" stop-color="rgb(5.099487%, 57.138062%, 92.567444%)" offset="0.5"/><stop stop-opacity="1" stop-color="rgb(5.099487%, 57.524109%, 92.645264%)" offset="0.515625"/><stop stop-opacity="1" stop-color="rgb(5.099487%, 57.910156%, 92.723083%)" offset="0.53125"/><stop stop-opacity="1" stop-color="rgb(5.099487%, 58.297729%, 92.802429%)" offset="0.546875"/><stop stop-opacity="1" stop-color="rgb(5.099487%, 58.683777%, 92.880249%)" offset="0.5625"/><stop stop-opacity="1" stop-color="rgb(5.099487%, 59.07135%, 92.959595%)" offset="0.578125"/><stop stop-opacity="1" stop-color="rgb(5.099487%, 59.457397%, 93.037415%)" offset="0.59375"/><stop stop-opacity="1" stop-color="rgb(5.099487%, 59.843445%, 93.11676%)" offset="0.609375"/><stop stop-opacity="1" stop-color="rgb(5.099487%, 60.231018%, 93.19458%)" offset="0.625"/><stop stop-opacity="1" stop-color="rgb(5.099487%, 60.617065%, 93.2724%)" offset="0.640625"/><stop stop-opacity="1" stop-color="rgb(5.099487%, 61.003113%, 93.351746%)" offset="0.65625"/><stop stop-opacity="1" stop-color="rgb(5.099487%, 61.390686%, 93.429565%)" offset="0.671875"/><stop stop-opacity="1" stop-color="rgb(5.099487%, 61.776733%, 93.508911%)" offset="0.6875"/><stop stop-opacity="1" stop-color="rgb(5.099487%, 62.162781%, 93.586731%)" offset="0.703125"/><stop stop-opacity="1" stop-color="rgb(5.099487%, 62.550354%, 93.664551%)" offset="0.71875"/><stop stop-opacity="1" stop-color="rgb(5.099487%, 62.936401%, 93.743896%)" offset="0.734375"/><stop stop-opacity="1" stop-color="rgb(5.099487%, 63.322449%, 93.821716%)" offset="0.75"/><stop stop-opacity="1" stop-color="rgb(5.099487%, 63.710022%, 93.901062%)" offset="0.765625"/><stop stop-opacity="1" stop-color="rgb(5.099487%, 64.096069%, 93.978882%)" offset="0.78125"/><stop stop-opacity="1" stop-color="rgb(5.099487%, 64.482117%, 94.058228%)" offset="0.796875"/><stop stop-opacity="1" stop-color="rgb(5.099487%, 64.86969%, 94.136047%)" offset="0.8125"/><stop stop-opacity="1" stop-color="rgb(5.099487%, 65.255737%, 94.213867%)" offset="0.824155"/><stop stop-opacity="1" stop-color="rgb(5.099487%, 65.449524%, 94.25354%)" offset="0.828125"/><stop stop-opacity="1" stop-color="rgb(5.099487%, 65.641785%, 94.293213%)" offset="0.84375"/><stop stop-opacity="1" stop-color="rgb(5.099487%, 66.029358%, 94.371033%)" offset="0.859375"/><stop stop-opacity="1" stop-color="rgb(5.099487%, 66.415405%, 94.450378%)" offset="0.875"/><stop stop-opacity="1" stop-color="rgb(5.099487%, 66.801453%, 94.528198%)" offset="0.890625"/><stop stop-opacity="1" stop-color="rgb(5.099487%, 67.189026%, 94.606018%)" offset="0.90625"/><stop stop-opacity="1" stop-color="rgb(5.099487%, 67.575073%, 94.685364%)" offset="0.921875"/><stop stop-opacity="1" stop-color="rgb(5.099487%, 67.961121%, 94.763184%)" offset="0.9375"/><stop stop-opacity="1" stop-color="rgb(5.099487%, 68.348694%, 94.842529%)" offset="0.953125"/><stop stop-opacity="1" stop-color="rgb(5.099487%, 68.734741%, 94.920349%)" offset="0.96875"/><stop stop-opacity="1" stop-color="rgb(5.099487%, 69.122314%, 94.999695%)" offset="0.984375"/><stop stop-opacity="1" stop-color="rgb(5.099487%, 69.508362%, 95.077515%)" offset="1"/></linearGradient><clipPath id="9ae021fbbe"><path d="M 151 174 L 152 174 L 152 175 L 151 175 Z M 151 174 " clip-rule="nonzero"/></clipPath><clipPath id="a7c655aebe"><path d="M 151.421875 174.992188 L 151.425781 174.992188 C 151.425781 174.988281 151.425781 174.984375 151.425781 174.980469 C 151.425781 174.984375 151.421875 174.988281 151.421875 174.992188 Z M 151.421875 174.992188 " clip-rule="nonzero"/></clipPath><linearGradient x1="-1899.397169" gradientTransform="matrix(-0.0276719, 0.108625, -0.107549, -0.0279486, -110.141633, 326.989282)" y1="-1943.262204" x2="-1899.46762" gradientUnits="userSpaceOnUse" y2="-1943.391165" id="3c7cb53b96"><stop stop-opacity="1" stop-color="rgb(5.099487%, 58.894348%, 92.9245%)" offset="0"/><stop stop-opacity="1" stop-color="rgb(5.099487%, 58.8974%, 92.9245%)" offset="0.459526"/><stop stop-opacity="1" stop-color="rgb(5.099487%, 58.901978%, 92.9245%)" offset="0.5"/><stop stop-opacity="1" stop-color="rgb(5.099487%, 58.905029%, 92.9245%)" offset="0.540474"/><stop stop-opacity="1" stop-color="rgb(5.099487%, 58.909607%, 92.926025%)" offset="1"/></linearGradient></defs><g clip-path="url(#ba158c7c7b)"><g clip-path="url(#380745aecd)"><path fill="url(#c1482d7819)" d="M 123.128906 168.125 L 123.128906 185.949219 L 149.6875 185.949219 L 149.6875 168.125 Z M 123.128906 168.125 " fill-rule="nonzero"/></g></g><g clip-path="url(#eb0bcdce9f)"><g clip-path="url(#56466225dc)"><path fill="url(#01c3773485)" d="M 128.789062 178.761719 L 128.789062 207.125 L 150.492188 207.125 L 150.492188 178.761719 Z M 128.789062 178.761719 " fill-rule="nonzero"/></g></g><g clip-path="url(#5b08daaf76)"><g clip-path="url(#d4d4a25c59)"><path fill="url(#56344aa3a9)" d="M 150.453125 168.636719 L 150.453125 176.902344 L 158.371094 176.902344 L 158.371094 168.636719 Z M 150.453125 168.636719 " fill-rule="nonzero"/></g></g><g clip-path="url(#9ae021fbbe)"><g clip-path="url(#a7c655aebe)"><path fill="url(#3c7cb53b96)" d="M 151.429688 174.980469 L 151.421875 174.976562 L 151.417969 174.992188 L 151.425781 174.996094 Z M 151.429688 174.980469 " fill-rule="nonzero"/></g></g><g fill="#0d6fe5" fill-opacity="1"><g transform="translate(159.76561, 199.278342)"><g><path d="M 16.515625 -20.0625 L 16.515625 -17.59375 L 9.859375 -17.59375 L 9.859375 0 L 7.140625 0 L 7.140625 -17.59375 L 0.484375 -17.59375 L 0.484375 -20.0625 Z M 16.515625 -20.0625 "/></g></g></g><g fill="#0d6fe5" fill-opacity="1"><g transform="translate(176.753436, 199.278342)"><g><path d="M 4.734375 0 L 2.109375 0 L 2.109375 -15.8125 L 4.515625 -15.8125 L 4.640625 -14.46875 L 4.765625 -14.46875 C 5.597656 -14.957031 6.429688 -15.320312 7.265625 -15.5625 C 8.097656 -15.8125 8.921875 -15.9375 9.734375 -15.9375 C 10.066406 -15.9375 10.289062 -15.9375 10.40625 -15.9375 C 10.53125 -15.9375 10.625 -15.925781 10.6875 -15.90625 L 10.6875 -13.375 C 10.539062 -13.414062 10.351562 -13.441406 10.125 -13.453125 C 9.90625 -13.460938 9.5625 -13.46875 9.09375 -13.46875 C 8.320312 -13.46875 7.566406 -13.375 6.828125 -13.1875 C 6.097656 -13.007812 5.398438 -12.742188 4.734375 -12.390625 Z M 4.734375 0 "/></g></g></g><g fill="#0d6fe5" fill-opacity="1"><g transform="translate(188.04666, 199.278342)"><g><path d="M 5.703125 0.25 C 4.078125 0.25 2.882812 -0.132812 2.125 -0.90625 C 1.363281 -1.6875 0.984375 -2.921875 0.984375 -4.609375 C 0.984375 -6.316406 1.441406 -7.523438 2.359375 -8.234375 C 3.285156 -8.953125 4.847656 -9.3125 7.046875 -9.3125 C 7.765625 -9.3125 8.472656 -9.28125 9.171875 -9.21875 C 9.878906 -9.15625 10.546875 -9.054688 11.171875 -8.921875 L 11.171875 -10.46875 C 11.171875 -11.632812 10.867188 -12.472656 10.265625 -12.984375 C 9.671875 -13.503906 8.710938 -13.765625 7.390625 -13.765625 C 6.410156 -13.765625 5.546875 -13.722656 4.796875 -13.640625 C 4.054688 -13.566406 3.3125 -13.445312 2.5625 -13.28125 L 2.5625 -15.546875 C 3.414062 -15.765625 4.285156 -15.914062 5.171875 -16 C 6.054688 -16.082031 7.0625 -16.125 8.1875 -16.125 C 10.09375 -16.125 11.503906 -15.679688 12.421875 -14.796875 C 13.335938 -13.910156 13.796875 -12.539062 13.796875 -10.6875 L 13.796875 0 L 11.390625 0 L 11.265625 -1.46875 L 11.203125 -1.46875 C 10.554688 -0.957031 9.726562 -0.539062 8.71875 -0.21875 C 7.707031 0.09375 6.703125 0.25 5.703125 0.25 Z M 7.328125 -7.171875 C 5.878906 -7.171875 4.867188 -6.992188 4.296875 -6.640625 C 3.734375 -6.285156 3.453125 -5.660156 3.453125 -4.765625 C 3.453125 -3.828125 3.6875 -3.148438 4.15625 -2.734375 C 4.625 -2.316406 5.394531 -2.109375 6.46875 -2.109375 C 7.300781 -2.109375 8.15625 -2.234375 9.03125 -2.484375 C 9.90625 -2.742188 10.617188 -3.066406 11.171875 -3.453125 L 11.171875 -6.84375 C 10.460938 -6.957031 9.800781 -7.039062 9.1875 -7.09375 C 8.582031 -7.144531 7.960938 -7.171875 7.328125 -7.171875 Z M 7.328125 -7.171875 "/></g></g></g><g fill="#0d6fe5" fill-opacity="1"><g transform="translate(203.81878, 199.278342)"><g><path d="M 12.609375 -15.8125 L 15.484375 -15.8125 L 9.40625 0 L 6.40625 0 L 0.3125 -15.8125 L 3.234375 -15.8125 L 7.9375 -2.40625 Z M 12.609375 -15.8125 "/></g></g></g><g fill="#0d6fe5" fill-opacity="1"><g transform="translate(219.622898, 199.278342)"><g><path d="M 13.984375 -3.078125 L 13.984375 -0.859375 C 13.429688 -0.566406 12.613281 -0.304688 11.53125 -0.078125 C 10.457031 0.140625 9.363281 0.25 8.25 0.25 C 5.78125 0.25 4.007812 -0.382812 2.9375 -1.65625 C 1.875 -2.9375 1.34375 -5.050781 1.34375 -8 C 1.34375 -10.832031 1.894531 -12.894531 3 -14.1875 C 4.113281 -15.476562 5.882812 -16.125 8.3125 -16.125 C 10.582031 -16.125 12.207031 -15.617188 13.1875 -14.609375 C 14.164062 -13.597656 14.65625 -11.90625 14.65625 -9.53125 C 14.65625 -9.101562 14.644531 -8.707031 14.625 -8.34375 C 14.601562 -7.988281 14.5625 -7.554688 14.5 -7.046875 L 4 -7.046875 C 4.019531 -5.296875 4.375 -4.046875 5.0625 -3.296875 C 5.757812 -2.546875 6.960938 -2.171875 8.671875 -2.171875 C 9.585938 -2.171875 10.546875 -2.253906 11.546875 -2.421875 C 12.554688 -2.597656 13.367188 -2.816406 13.984375 -3.078125 Z M 12.25 -9.890625 C 12.226562 -11.296875 11.921875 -12.289062 11.328125 -12.875 C 10.734375 -13.46875 9.726562 -13.765625 8.3125 -13.765625 C 6.738281 -13.765625 5.625 -13.425781 4.96875 -12.75 C 4.320312 -12.082031 4 -10.90625 4 -9.21875 L 12.21875 -9.21875 C 12.21875 -9.257812 12.222656 -9.359375 12.234375 -9.515625 C 12.242188 -9.679688 12.25 -9.804688 12.25 -9.890625 Z M 12.25 -9.890625 "/></g></g></g><g fill="#0d6fe5" fill-opacity="1"><g transform="translate(235.554984, 199.278342)"><g><path d="M 4.734375 -21.28125 L 4.734375 0 L 2.109375 0 L 2.109375 -21.28125 Z M 4.734375 -21.28125 "/></g></g></g><g fill="#21cd91" fill-opacity="1"><g transform="translate(242.394511, 199.278342)"><g><path d="M 5.03125 0 L 2.296875 0 L 2.296875 -20.0625 L 5.03125 -20.0625 L 5.03125 -11.421875 L 15.515625 -11.421875 L 15.515625 -20.0625 L 18.234375 -20.0625 L 18.234375 0 L 15.515625 0 L 15.515625 -8.921875 L 5.03125 -8.921875 Z M 5.03125 0 "/></g></g></g><g fill="#21cd91" fill-opacity="1"><g transform="translate(262.933461, 199.278342)"><g><path d="M 7.234375 0.25 C 5.484375 0.25 4.171875 -0.1875 3.296875 -1.0625 C 2.421875 -1.9375 1.984375 -3.242188 1.984375 -4.984375 L 1.984375 -15.8125 L 4.609375 -15.8125 L 4.609375 -5.3125 C 4.609375 -4.226562 4.882812 -3.4375 5.4375 -2.9375 C 5.988281 -2.445312 6.863281 -2.203125 8.0625 -2.203125 C 8.789062 -2.203125 9.519531 -2.289062 10.25 -2.46875 C 10.988281 -2.65625 11.734375 -2.941406 12.484375 -3.328125 L 12.484375 -15.8125 L 15.109375 -15.8125 L 15.109375 0 L 12.703125 0 L 12.578125 -1.3125 L 12.515625 -1.3125 C 11.398438 -0.738281 10.4375 -0.332031 9.625 -0.09375 C 8.820312 0.132812 8.023438 0.25 7.234375 0.25 Z M 7.234375 0.25 "/></g></g></g><g fill="#21cd91" fill-opacity="1"><g transform="translate(280.145225, 199.278342)"><g><path d="M 9.921875 -16.125 C 12.078125 -16.125 13.617188 -15.488281 14.546875 -14.21875 C 15.472656 -12.945312 15.9375 -10.875 15.9375 -8 C 15.9375 -5.050781 15.359375 -2.9375 14.203125 -1.65625 C 13.054688 -0.382812 11.128906 0.25 8.421875 0.25 C 7.203125 0.25 6.054688 0.179688 4.984375 0.046875 C 3.921875 -0.0859375 2.953125 -0.296875 2.078125 -0.578125 L 2.078125 -21.28125 L 4.703125 -21.28125 L 4.703125 -14.71875 C 5.453125 -15.164062 6.273438 -15.507812 7.171875 -15.75 C 8.066406 -16 8.984375 -16.125 9.921875 -16.125 Z M 13.3125 -8 C 13.3125 -10.15625 13.003906 -11.65625 12.390625 -12.5 C 11.785156 -13.34375 10.648438 -13.765625 8.984375 -13.765625 C 8.222656 -13.765625 7.46875 -13.660156 6.71875 -13.453125 C 5.96875 -13.253906 5.296875 -12.972656 4.703125 -12.609375 L 4.703125 -2.59375 C 5.171875 -2.46875 5.703125 -2.363281 6.296875 -2.28125 C 6.898438 -2.207031 7.550781 -2.171875 8.25 -2.171875 C 10.238281 -2.171875 11.578125 -2.585938 12.265625 -3.421875 C 12.960938 -4.253906 13.3125 -5.78125 13.3125 -8 Z M 13.3125 -8 "/></g></g></g></svg>