<svg xmlns="http://www.w3.org/2000/svg" xmlns:xlink="http://www.w3.org/1999/xlink" width="343" zoomAndPan="magnify" viewBox="0 0 257.25 114.749996" height="153" preserveAspectRatio="xMidYMid meet" version="1.0"><defs><g/><clipPath id="854901f8e2"><path d="M 37.511719 37.554688 L 64 37.554688 L 64 56 L 37.511719 56 Z M 37.511719 37.554688 " clip-rule="nonzero"/></clipPath><clipPath id="ff35d45d3c"><path d="M 51.160156 37.554688 C 43.625 37.554688 37.519531 43.726562 37.519531 51.335938 C 37.519531 52.4375 37.695312 53.617188 38.007812 54.839844 C 41.648438 55.328125 45.371094 55.183594 48.957031 54.382812 C 54.339844 53.179688 60.5 50.355469 64 46.671875 C 62.105469 41.355469 57.074219 37.554688 51.160156 37.554688 Z M 41.78125 46.441406 L 41.777344 46.382812 C 41.777344 45.125 42.785156 44.105469 44.03125 44.105469 C 44.292969 44.105469 44.542969 44.152344 44.777344 44.234375 C 45.019531 43.582031 45.644531 43.113281 46.375 43.113281 C 47.199219 43.113281 47.886719 43.703125 48.046875 44.492188 C 48.085938 44.488281 48.125 44.488281 48.167969 44.488281 C 49.292969 44.488281 50.21875 45.339844 50.347656 46.445312 L 41.78125 46.445312 Z M 50.953125 49.679688 L 50.953125 49.648438 C 50.953125 49.019531 51.457031 48.511719 52.082031 48.511719 C 52.210938 48.511719 52.335938 48.535156 52.453125 48.574219 C 52.574219 48.246094 52.882812 48.015625 53.25 48.015625 C 53.664062 48.015625 54.007812 48.308594 54.085938 48.703125 C 54.105469 48.703125 54.125 48.699219 54.148438 48.699219 C 54.710938 48.699219 55.175781 49.125 55.238281 49.679688 Z M 50.953125 49.679688 " clip-rule="nonzero"/></clipPath><linearGradient x1="166.613489" gradientTransform="matrix(0.110729, 0, 0, 0.111836, 37.518603, 37.5561)" y1="198.552052" x2="44.780454" gradientUnits="userSpaceOnUse" y2="-24.463476" id="f2524b0dba"><stop stop-opacity="1" stop-color="rgb(5.099487%, 43.499756%, 89.7995%)" offset="0"/><stop stop-opacity="1" stop-color="rgb(5.099487%, 43.499756%, 89.7995%)" offset="0.25"/><stop stop-opacity="1" stop-color="rgb(5.099487%, 43.499756%, 89.7995%)" offset="0.28125"/><stop stop-opacity="1" stop-color="rgb(5.099487%, 43.534851%, 89.807129%)" offset="0.289062"/><stop stop-opacity="1" stop-color="rgb(5.099487%, 43.746948%, 89.849854%)" offset="0.296875"/><stop stop-opacity="1" stop-color="rgb(5.099487%, 44.099426%, 89.920044%)" offset="0.304688"/><stop stop-opacity="1" stop-color="rgb(5.099487%, 44.451904%, 89.99176%)" offset="0.3125"/><stop stop-opacity="1" stop-color="rgb(5.099487%, 44.804382%, 90.063477%)" offset="0.320312"/><stop stop-opacity="1" stop-color="rgb(5.099487%, 45.15686%, 90.135193%)" offset="0.328125"/><stop stop-opacity="1" stop-color="rgb(5.099487%, 45.509338%, 90.206909%)" offset="0.335937"/><stop stop-opacity="1" stop-color="rgb(5.099487%, 45.861816%, 90.278625%)" offset="0.34375"/><stop stop-opacity="1" stop-color="rgb(5.099487%, 46.214294%, 90.350342%)" offset="0.351562"/><stop stop-opacity="1" stop-color="rgb(5.099487%, 46.566772%, 90.420532%)" offset="0.359375"/><stop stop-opacity="1" stop-color="rgb(5.099487%, 46.91925%, 90.492249%)" offset="0.367187"/><stop stop-opacity="1" stop-color="rgb(5.099487%, 47.270203%, 90.563965%)" offset="0.375"/><stop stop-opacity="1" stop-color="rgb(5.099487%, 47.622681%, 90.635681%)" offset="0.382812"/><stop stop-opacity="1" stop-color="rgb(5.099487%, 47.975159%, 90.707397%)" offset="0.390625"/><stop stop-opacity="1" stop-color="rgb(5.099487%, 48.327637%, 90.779114%)" offset="0.398437"/><stop stop-opacity="1" stop-color="rgb(5.099487%, 48.680115%, 90.85083%)" offset="0.40625"/><stop stop-opacity="1" stop-color="rgb(5.099487%, 49.032593%, 90.921021%)" offset="0.414062"/><stop stop-opacity="1" stop-color="rgb(5.099487%, 49.385071%, 90.992737%)" offset="0.421875"/><stop stop-opacity="1" stop-color="rgb(5.099487%, 49.737549%, 91.064453%)" offset="0.429687"/><stop stop-opacity="1" stop-color="rgb(5.099487%, 50.090027%, 91.136169%)" offset="0.4375"/><stop stop-opacity="1" stop-color="rgb(5.099487%, 50.442505%, 91.207886%)" offset="0.445312"/><stop stop-opacity="1" stop-color="rgb(5.099487%, 50.794983%, 91.279602%)" offset="0.451191"/><stop stop-opacity="1" stop-color="rgb(5.099487%, 50.970459%, 91.316223%)" offset="0.453125"/><stop stop-opacity="1" stop-color="rgb(5.099487%, 51.145935%, 91.351318%)" offset="0.460937"/><stop stop-opacity="1" stop-color="rgb(5.099487%, 51.498413%, 91.423035%)" offset="0.46875"/><stop stop-opacity="1" stop-color="rgb(5.099487%, 51.850891%, 91.493225%)" offset="0.476562"/><stop stop-opacity="1" stop-color="rgb(5.099487%, 52.203369%, 91.564941%)" offset="0.484375"/><stop stop-opacity="1" stop-color="rgb(5.099487%, 52.555847%, 91.636658%)" offset="0.492187"/><stop stop-opacity="1" stop-color="rgb(5.099487%, 52.908325%, 91.708374%)" offset="0.5"/><stop stop-opacity="1" stop-color="rgb(5.099487%, 53.260803%, 91.78009%)" offset="0.507812"/><stop stop-opacity="1" stop-color="rgb(5.099487%, 53.613281%, 91.851807%)" offset="0.515625"/><stop stop-opacity="1" stop-color="rgb(5.099487%, 53.965759%, 91.923523%)" offset="0.523437"/><stop stop-opacity="1" stop-color="rgb(5.099487%, 54.318237%, 91.993713%)" offset="0.53125"/><stop stop-opacity="1" stop-color="rgb(5.099487%, 54.669189%, 92.06543%)" offset="0.539062"/><stop stop-opacity="1" stop-color="rgb(5.099487%, 55.021667%, 92.137146%)" offset="0.546875"/><stop stop-opacity="1" stop-color="rgb(5.099487%, 55.374146%, 92.208862%)" offset="0.548809"/><stop stop-opacity="1" stop-color="rgb(5.099487%, 55.551147%, 92.245483%)" offset="0.554687"/><stop stop-opacity="1" stop-color="rgb(5.099487%, 55.726624%, 92.280579%)" offset="0.5625"/><stop stop-opacity="1" stop-color="rgb(5.099487%, 56.079102%, 92.352295%)" offset="0.570312"/><stop stop-opacity="1" stop-color="rgb(5.099487%, 56.43158%, 92.424011%)" offset="0.578125"/><stop stop-opacity="1" stop-color="rgb(5.099487%, 56.784058%, 92.494202%)" offset="0.585937"/><stop stop-opacity="1" stop-color="rgb(5.099487%, 57.136536%, 92.565918%)" offset="0.59375"/><stop stop-opacity="1" stop-color="rgb(5.099487%, 57.489014%, 92.637634%)" offset="0.601562"/><stop stop-opacity="1" stop-color="rgb(5.099487%, 57.841492%, 92.709351%)" offset="0.609375"/><stop stop-opacity="1" stop-color="rgb(5.099487%, 58.19397%, 92.781067%)" offset="0.617187"/><stop stop-opacity="1" stop-color="rgb(5.099487%, 58.544922%, 92.852783%)" offset="0.625"/><stop stop-opacity="1" stop-color="rgb(5.099487%, 58.8974%, 92.9245%)" offset="0.632812"/><stop stop-opacity="1" stop-color="rgb(5.099487%, 59.249878%, 92.99469%)" offset="0.640625"/><stop stop-opacity="1" stop-color="rgb(5.099487%, 59.602356%, 93.066406%)" offset="0.648437"/><stop stop-opacity="1" stop-color="rgb(5.099487%, 59.954834%, 93.138123%)" offset="0.65625"/><stop stop-opacity="1" stop-color="rgb(5.099487%, 60.307312%, 93.209839%)" offset="0.664062"/><stop stop-opacity="1" stop-color="rgb(5.099487%, 60.65979%, 93.281555%)" offset="0.671875"/><stop stop-opacity="1" stop-color="rgb(5.099487%, 61.012268%, 93.353271%)" offset="0.679687"/><stop stop-opacity="1" stop-color="rgb(5.099487%, 61.364746%, 93.424988%)" offset="0.6875"/><stop stop-opacity="1" stop-color="rgb(5.099487%, 61.717224%, 93.496704%)" offset="0.695312"/><stop stop-opacity="1" stop-color="rgb(5.099487%, 62.068176%, 93.566895%)" offset="0.703125"/><stop stop-opacity="1" stop-color="rgb(5.099487%, 62.420654%, 93.638611%)" offset="0.710937"/><stop stop-opacity="1" stop-color="rgb(5.099487%, 62.773132%, 93.710327%)" offset="0.71875"/><stop stop-opacity="1" stop-color="rgb(5.099487%, 63.12561%, 93.782043%)" offset="0.726562"/><stop stop-opacity="1" stop-color="rgb(5.099487%, 63.478088%, 93.85376%)" offset="0.734375"/><stop stop-opacity="1" stop-color="rgb(5.099487%, 63.830566%, 93.925476%)" offset="0.742187"/><stop stop-opacity="1" stop-color="rgb(5.099487%, 64.183044%, 93.997192%)" offset="0.75"/><stop stop-opacity="1" stop-color="rgb(5.099487%, 64.535522%, 94.067383%)" offset="0.757812"/><stop stop-opacity="1" stop-color="rgb(5.099487%, 64.888%, 94.139099%)" offset="0.765625"/><stop stop-opacity="1" stop-color="rgb(5.099487%, 65.240479%, 94.210815%)" offset="0.773437"/><stop stop-opacity="1" stop-color="rgb(5.099487%, 65.592957%, 94.282532%)" offset="0.78125"/><stop stop-opacity="1" stop-color="rgb(5.099487%, 65.943909%, 94.354248%)" offset="0.789062"/><stop stop-opacity="1" stop-color="rgb(5.099487%, 66.296387%, 94.425964%)" offset="0.796875"/><stop stop-opacity="1" stop-color="rgb(5.099487%, 66.648865%, 94.497681%)" offset="0.804687"/><stop stop-opacity="1" stop-color="rgb(5.099487%, 67.001343%, 94.567871%)" offset="0.8125"/><stop stop-opacity="1" stop-color="rgb(5.099487%, 67.353821%, 94.639587%)" offset="0.820312"/><stop stop-opacity="1" stop-color="rgb(5.099487%, 67.706299%, 94.711304%)" offset="0.828125"/><stop stop-opacity="1" stop-color="rgb(5.099487%, 68.058777%, 94.78302%)" offset="0.835937"/><stop stop-opacity="1" stop-color="rgb(5.099487%, 68.411255%, 94.854736%)" offset="0.84375"/><stop stop-opacity="1" stop-color="rgb(5.099487%, 68.763733%, 94.926453%)" offset="0.851562"/><stop stop-opacity="1" stop-color="rgb(5.099487%, 69.116211%, 94.998169%)" offset="0.859375"/><stop stop-opacity="1" stop-color="rgb(5.099487%, 69.468689%, 95.068359%)" offset="0.867187"/><stop stop-opacity="1" stop-color="rgb(5.099487%, 69.819641%, 95.140076%)" offset="0.875"/><stop stop-opacity="1" stop-color="rgb(5.099487%, 70.172119%, 95.211792%)" offset="0.882812"/><stop stop-opacity="1" stop-color="rgb(5.099487%, 70.474243%, 95.272827%)" offset="0.890625"/><stop stop-opacity="1" stop-color="rgb(5.099487%, 70.599365%, 95.298767%)" offset="0.90625"/><stop stop-opacity="1" stop-color="rgb(5.099487%, 70.599365%, 95.298767%)" offset="0.9375"/><stop stop-opacity="1" stop-color="rgb(5.099487%, 70.599365%, 95.298767%)" offset="1"/></linearGradient><clipPath id="d21b9f836d"><path d="M 43 48 L 65 48 L 65 76.441406 L 43 76.441406 Z M 43 48 " clip-rule="nonzero"/></clipPath><clipPath id="78a64da53a"><path d="M 64.804688 51.335938 C 64.804688 60.921875 51.160156 76.441406 51.160156 76.441406 C 51.160156 76.441406 46.917969 71.65625 43.164062 65.738281 C 46.816406 64.316406 50.351562 62.640625 53.605469 60.457031 C 58.183594 57.382812 62.199219 53.179688 64.4375 48.164062 C 64.675781 49.183594 64.804688 50.242188 64.804688 51.335938 Z M 64.804688 51.335938 " clip-rule="nonzero"/></clipPath><linearGradient x1="207.256425" gradientTransform="matrix(0.110729, 0, 0, 0.111836, 37.518603, 37.5561)" y1="360.323152" x2="115.080023" gradientUnits="userSpaceOnUse" y2="74.190455" id="5deb9764c3"><stop stop-opacity="1" stop-color="rgb(0%, 88.198853%, 57.998657%)" offset="0"/><stop stop-opacity="1" stop-color="rgb(0%, 88.198853%, 57.998657%)" offset="0.0625"/><stop stop-opacity="1" stop-color="rgb(0.012207%, 88.052368%, 58.123779%)" offset="0.078125"/><stop stop-opacity="1" stop-color="rgb(0.0366211%, 87.757874%, 58.375549%)" offset="0.0859375"/><stop stop-opacity="1" stop-color="rgb(0.0610352%, 87.460327%, 58.628845%)" offset="0.09375"/><stop stop-opacity="1" stop-color="rgb(0.0854492%, 87.161255%, 58.883667%)" offset="0.101562"/><stop stop-opacity="1" stop-color="rgb(0.111389%, 86.863708%, 59.138489%)" offset="0.109375"/><stop stop-opacity="1" stop-color="rgb(0.135803%, 86.564636%, 59.393311%)" offset="0.117188"/><stop stop-opacity="1" stop-color="rgb(0.160217%, 86.26709%, 59.648132%)" offset="0.125"/><stop stop-opacity="1" stop-color="rgb(0.186157%, 85.969543%, 59.901428%)" offset="0.132812"/><stop stop-opacity="1" stop-color="rgb(0.210571%, 85.670471%, 60.15625%)" offset="0.140625"/><stop stop-opacity="1" stop-color="rgb(0.234985%, 85.372925%, 60.411072%)" offset="0.148437"/><stop stop-opacity="1" stop-color="rgb(0.260925%, 85.073853%, 60.665894%)" offset="0.15625"/><stop stop-opacity="1" stop-color="rgb(0.285339%, 84.776306%, 60.920715%)" offset="0.164062"/><stop stop-opacity="1" stop-color="rgb(0.309753%, 84.47876%, 61.174011%)" offset="0.171875"/><stop stop-opacity="1" stop-color="rgb(0.335693%, 84.179688%, 61.428833%)" offset="0.179688"/><stop stop-opacity="1" stop-color="rgb(0.360107%, 83.882141%, 61.683655%)" offset="0.1875"/><stop stop-opacity="1" stop-color="rgb(0.384521%, 83.583069%, 61.938477%)" offset="0.195312"/><stop stop-opacity="1" stop-color="rgb(0.410461%, 83.285522%, 62.191772%)" offset="0.19934"/><stop stop-opacity="1" stop-color="rgb(0.422668%, 83.137512%, 62.319946%)" offset="0.203125"/><stop stop-opacity="1" stop-color="rgb(0.434875%, 82.987976%, 62.446594%)" offset="0.210938"/><stop stop-opacity="1" stop-color="rgb(0.45929%, 82.688904%, 62.701416%)" offset="0.21875"/><stop stop-opacity="1" stop-color="rgb(0.485229%, 82.391357%, 62.956238%)" offset="0.226562"/><stop stop-opacity="1" stop-color="rgb(0.509644%, 82.092285%, 63.21106%)" offset="0.234375"/><stop stop-opacity="1" stop-color="rgb(0.535583%, 81.794739%, 63.464355%)" offset="0.242188"/><stop stop-opacity="1" stop-color="rgb(0.559998%, 81.497192%, 63.719177%)" offset="0.25"/><stop stop-opacity="1" stop-color="rgb(0.584412%, 81.19812%, 63.973999%)" offset="0.257812"/><stop stop-opacity="1" stop-color="rgb(0.610352%, 80.900574%, 64.228821%)" offset="0.265625"/><stop stop-opacity="1" stop-color="rgb(0.634766%, 80.601501%, 64.483643%)" offset="0.273438"/><stop stop-opacity="1" stop-color="rgb(0.65918%, 80.303955%, 64.736938%)" offset="0.28125"/><stop stop-opacity="1" stop-color="rgb(0.68512%, 80.006409%, 64.99176%)" offset="0.289062"/><stop stop-opacity="1" stop-color="rgb(0.709534%, 79.707336%, 65.246582%)" offset="0.296875"/><stop stop-opacity="1" stop-color="rgb(0.733948%, 79.40979%, 65.501404%)" offset="0.304688"/><stop stop-opacity="1" stop-color="rgb(0.759888%, 79.110718%, 65.7547%)" offset="0.3125"/><stop stop-opacity="1" stop-color="rgb(0.784302%, 78.813171%, 66.009521%)" offset="0.320312"/><stop stop-opacity="1" stop-color="rgb(0.808716%, 78.515625%, 66.264343%)" offset="0.328125"/><stop stop-opacity="1" stop-color="rgb(0.834656%, 78.216553%, 66.519165%)" offset="0.335938"/><stop stop-opacity="1" stop-color="rgb(0.85907%, 77.919006%, 66.773987%)" offset="0.34375"/><stop stop-opacity="1" stop-color="rgb(0.883484%, 77.619934%, 67.027283%)" offset="0.351562"/><stop stop-opacity="1" stop-color="rgb(0.909424%, 77.322388%, 67.282104%)" offset="0.359375"/><stop stop-opacity="1" stop-color="rgb(0.933838%, 77.023315%, 67.536926%)" offset="0.367188"/><stop stop-opacity="1" stop-color="rgb(0.959778%, 76.725769%, 67.791748%)" offset="0.375"/><stop stop-opacity="1" stop-color="rgb(0.984192%, 76.428223%, 68.04657%)" offset="0.382812"/><stop stop-opacity="1" stop-color="rgb(1.008606%, 76.12915%, 68.299866%)" offset="0.390625"/><stop stop-opacity="1" stop-color="rgb(1.034546%, 75.831604%, 68.554688%)" offset="0.398437"/><stop stop-opacity="1" stop-color="rgb(1.05896%, 75.532532%, 68.809509%)" offset="0.40625"/><stop stop-opacity="1" stop-color="rgb(1.083374%, 75.234985%, 69.064331%)" offset="0.414062"/><stop stop-opacity="1" stop-color="rgb(1.109314%, 74.937439%, 69.317627%)" offset="0.421875"/><stop stop-opacity="1" stop-color="rgb(1.133728%, 74.638367%, 69.572449%)" offset="0.429687"/><stop stop-opacity="1" stop-color="rgb(1.158142%, 74.34082%, 69.827271%)" offset="0.4375"/><stop stop-opacity="1" stop-color="rgb(1.184082%, 74.041748%, 70.082092%)" offset="0.445312"/><stop stop-opacity="1" stop-color="rgb(1.208496%, 73.744202%, 70.336914%)" offset="0.453125"/><stop stop-opacity="1" stop-color="rgb(1.23291%, 73.446655%, 70.59021%)" offset="0.460938"/><stop stop-opacity="1" stop-color="rgb(1.25885%, 73.147583%, 70.845032%)" offset="0.46875"/><stop stop-opacity="1" stop-color="rgb(1.283264%, 72.850037%, 71.099854%)" offset="0.476562"/><stop stop-opacity="1" stop-color="rgb(1.307678%, 72.550964%, 71.354675%)" offset="0.484375"/><stop stop-opacity="1" stop-color="rgb(1.333618%, 72.253418%, 71.609497%)" offset="0.492188"/><stop stop-opacity="1" stop-color="rgb(1.358032%, 71.955872%, 71.862793%)" offset="0.5"/><stop stop-opacity="1" stop-color="rgb(1.382446%, 71.656799%, 72.117615%)" offset="0.507812"/><stop stop-opacity="1" stop-color="rgb(1.408386%, 71.359253%, 72.372437%)" offset="0.515625"/><stop stop-opacity="1" stop-color="rgb(1.4328%, 71.060181%, 72.627258%)" offset="0.523438"/><stop stop-opacity="1" stop-color="rgb(1.45874%, 70.762634%, 72.88208%)" offset="0.53125"/><stop stop-opacity="1" stop-color="rgb(1.483154%, 70.465088%, 73.135376%)" offset="0.539062"/><stop stop-opacity="1" stop-color="rgb(1.507568%, 70.166016%, 73.390198%)" offset="0.546875"/><stop stop-opacity="1" stop-color="rgb(1.533508%, 69.868469%, 73.64502%)" offset="0.554688"/><stop stop-opacity="1" stop-color="rgb(1.557922%, 69.569397%, 73.899841%)" offset="0.5625"/><stop stop-opacity="1" stop-color="rgb(1.582336%, 69.271851%, 74.153137%)" offset="0.570312"/><stop stop-opacity="1" stop-color="rgb(1.608276%, 68.974304%, 74.407959%)" offset="0.578125"/><stop stop-opacity="1" stop-color="rgb(1.63269%, 68.675232%, 74.662781%)" offset="0.585938"/><stop stop-opacity="1" stop-color="rgb(1.657104%, 68.377686%, 74.917603%)" offset="0.59375"/><stop stop-opacity="1" stop-color="rgb(1.683044%, 68.078613%, 75.172424%)" offset="0.601563"/><stop stop-opacity="1" stop-color="rgb(1.707458%, 67.781067%, 75.42572%)" offset="0.609375"/><stop stop-opacity="1" stop-color="rgb(1.731873%, 67.483521%, 75.680542%)" offset="0.617188"/><stop stop-opacity="1" stop-color="rgb(1.757812%, 67.184448%, 75.935364%)" offset="0.625"/><stop stop-opacity="1" stop-color="rgb(1.782227%, 66.886902%, 76.190186%)" offset="0.632812"/><stop stop-opacity="1" stop-color="rgb(1.806641%, 66.58783%, 76.445007%)" offset="0.640625"/><stop stop-opacity="1" stop-color="rgb(1.832581%, 66.290283%, 76.698303%)" offset="0.648437"/><stop stop-opacity="1" stop-color="rgb(1.856995%, 65.992737%, 76.953125%)" offset="0.65625"/><stop stop-opacity="1" stop-color="rgb(1.882935%, 65.693665%, 77.207947%)" offset="0.664062"/><stop stop-opacity="1" stop-color="rgb(1.907349%, 65.396118%, 77.462769%)" offset="0.671875"/><stop stop-opacity="1" stop-color="rgb(1.931763%, 65.097046%, 77.716064%)" offset="0.679688"/><stop stop-opacity="1" stop-color="rgb(1.957703%, 64.7995%, 77.970886%)" offset="0.6875"/><stop stop-opacity="1" stop-color="rgb(1.983643%, 64.474487%, 78.248596%)" offset="0.75"/><stop stop-opacity="1" stop-color="rgb(1.998901%, 64.299011%, 78.399658%)" offset="0.80066"/><stop stop-opacity="1" stop-color="rgb(1.998901%, 64.299011%, 78.399658%)" offset="1"/></linearGradient><clipPath id="52e4215b59"><path d="M 64 38 L 72.660156 38 L 72.660156 47 L 64 47 Z M 64 38 " clip-rule="nonzero"/></clipPath><clipPath id="c7fc452b7f"><path d="M 72.648438 38.410156 L 72.578125 39.238281 C 72.542969 39.441406 72.398438 39.722656 72.25 39.867188 L 71.332031 40.773438 C 71.1875 40.917969 71.117188 41.195312 71.179688 41.394531 L 72.140625 44.550781 C 72.199219 44.75 72.195312 45.066406 72.128906 45.261719 L 72.121094 45.289062 C 72.054688 45.484375 71.910156 45.503906 71.800781 45.328125 L 69.976562 42.488281 C 69.867188 42.316406 69.652344 42.285156 69.5 42.417969 L 67.691406 44.015625 C 67.539062 44.152344 67.441406 44.425781 67.480469 44.628906 L 67.644531 45.488281 C 67.6875 45.6875 67.671875 45.984375 67.621094 46.148438 C 67.566406 46.308594 67.433594 46.300781 67.316406 46.132812 L 66.71875 45.238281 C 66.605469 45.070312 66.421875 45.011719 66.3125 45.113281 C 66.203125 45.214844 66.050781 45.300781 65.976562 45.304688 C 65.898438 45.308594 65.839844 45.261719 65.84375 45.199219 C 65.84375 45.132812 65.90625 44.972656 65.980469 44.839844 C 66.054688 44.707031 65.96875 44.523438 65.785156 44.433594 L 65.734375 44.40625 C 65.734375 44.402344 65.738281 44.398438 65.738281 44.394531 C 65.734375 44.398438 65.730469 44.402344 65.730469 44.40625 L 65.046875 44.0625 C 64.867188 43.972656 64.765625 43.839844 64.820312 43.761719 C 64.878906 43.6875 65.09375 43.636719 65.296875 43.648438 L 66.511719 43.714844 C 66.714844 43.726562 66.96875 43.597656 67.082031 43.425781 L 68.324219 41.503906 C 68.433594 41.332031 68.382812 41.109375 68.203125 41.007812 L 65.421875 39.445312 C 65.242188 39.347656 65.214844 39.203125 65.351562 39.128906 C 65.492188 39.054688 65.765625 39.03125 65.964844 39.074219 L 69.40625 39.75 C 69.605469 39.792969 69.875 39.707031 70.011719 39.550781 L 70.917969 38.542969 C 71.054688 38.386719 71.328125 38.234375 71.527344 38.199219 L 72.347656 38.105469 C 72.546875 38.070312 72.683594 38.207031 72.648438 38.410156 Z M 72.648438 38.410156 " clip-rule="nonzero"/></clipPath><linearGradient x1="274.569625" gradientTransform="matrix(0.110729, 0, 0, 0.111836, 37.518603, 37.5561)" y1="-1.695557" x2="293.366296" gradientUnits="userSpaceOnUse" y2="83.560977" id="76e0c3f7c6"><stop stop-opacity="1" stop-color="rgb(5.099487%, 44.961548%, 90.09552%)" offset="0"/><stop stop-opacity="1" stop-color="rgb(5.099487%, 45.153809%, 90.135193%)" offset="0.015625"/><stop stop-opacity="1" stop-color="rgb(5.099487%, 45.539856%, 90.213013%)" offset="0.03125"/><stop stop-opacity="1" stop-color="rgb(5.099487%, 45.927429%, 90.292358%)" offset="0.046875"/><stop stop-opacity="1" stop-color="rgb(5.099487%, 46.313477%, 90.370178%)" offset="0.0625"/><stop stop-opacity="1" stop-color="rgb(5.099487%, 46.699524%, 90.447998%)" offset="0.078125"/><stop stop-opacity="1" stop-color="rgb(5.099487%, 47.087097%, 90.527344%)" offset="0.09375"/><stop stop-opacity="1" stop-color="rgb(5.099487%, 47.473145%, 90.605164%)" offset="0.109375"/><stop stop-opacity="1" stop-color="rgb(5.099487%, 47.859192%, 90.684509%)" offset="0.125"/><stop stop-opacity="1" stop-color="rgb(5.099487%, 48.246765%, 90.762329%)" offset="0.140625"/><stop stop-opacity="1" stop-color="rgb(5.099487%, 48.632812%, 90.840149%)" offset="0.15625"/><stop stop-opacity="1" stop-color="rgb(5.099487%, 49.01886%, 90.919495%)" offset="0.171875"/><stop stop-opacity="1" stop-color="rgb(5.099487%, 49.406433%, 90.997314%)" offset="0.175845"/><stop stop-opacity="1" stop-color="rgb(5.099487%, 49.60022%, 91.036987%)" offset="0.1875"/><stop stop-opacity="1" stop-color="rgb(5.099487%, 49.79248%, 91.07666%)" offset="0.203125"/><stop stop-opacity="1" stop-color="rgb(5.099487%, 50.180054%, 91.15448%)" offset="0.21875"/><stop stop-opacity="1" stop-color="rgb(5.099487%, 50.566101%, 91.233826%)" offset="0.234375"/><stop stop-opacity="1" stop-color="rgb(5.099487%, 50.952148%, 91.311646%)" offset="0.25"/><stop stop-opacity="1" stop-color="rgb(5.099487%, 51.339722%, 91.389465%)" offset="0.265625"/><stop stop-opacity="1" stop-color="rgb(5.099487%, 51.725769%, 91.468811%)" offset="0.28125"/><stop stop-opacity="1" stop-color="rgb(5.099487%, 52.111816%, 91.546631%)" offset="0.296875"/><stop stop-opacity="1" stop-color="rgb(5.099487%, 52.49939%, 91.625977%)" offset="0.3125"/><stop stop-opacity="1" stop-color="rgb(5.099487%, 52.885437%, 91.703796%)" offset="0.328125"/><stop stop-opacity="1" stop-color="rgb(5.099487%, 53.271484%, 91.781616%)" offset="0.34375"/><stop stop-opacity="1" stop-color="rgb(5.099487%, 53.659058%, 91.860962%)" offset="0.359375"/><stop stop-opacity="1" stop-color="rgb(5.099487%, 54.045105%, 91.938782%)" offset="0.375"/><stop stop-opacity="1" stop-color="rgb(5.099487%, 54.431152%, 92.018127%)" offset="0.390625"/><stop stop-opacity="1" stop-color="rgb(5.099487%, 54.818726%, 92.095947%)" offset="0.40625"/><stop stop-opacity="1" stop-color="rgb(5.099487%, 55.204773%, 92.175293%)" offset="0.421875"/><stop stop-opacity="1" stop-color="rgb(5.099487%, 55.59082%, 92.253113%)" offset="0.4375"/><stop stop-opacity="1" stop-color="rgb(5.099487%, 55.978394%, 92.330933%)" offset="0.453125"/><stop stop-opacity="1" stop-color="rgb(5.099487%, 56.364441%, 92.410278%)" offset="0.46875"/><stop stop-opacity="1" stop-color="rgb(5.099487%, 56.750488%, 92.488098%)" offset="0.484375"/><stop stop-opacity="1" stop-color="rgb(5.099487%, 57.138062%, 92.567444%)" offset="0.5"/><stop stop-opacity="1" stop-color="rgb(5.099487%, 57.524109%, 92.645264%)" offset="0.515625"/><stop stop-opacity="1" stop-color="rgb(5.099487%, 57.910156%, 92.723083%)" offset="0.53125"/><stop stop-opacity="1" stop-color="rgb(5.099487%, 58.297729%, 92.802429%)" offset="0.546875"/><stop stop-opacity="1" stop-color="rgb(5.099487%, 58.683777%, 92.880249%)" offset="0.5625"/><stop stop-opacity="1" stop-color="rgb(5.099487%, 59.07135%, 92.959595%)" offset="0.578125"/><stop stop-opacity="1" stop-color="rgb(5.099487%, 59.457397%, 93.037415%)" offset="0.59375"/><stop stop-opacity="1" stop-color="rgb(5.099487%, 59.843445%, 93.11676%)" offset="0.609375"/><stop stop-opacity="1" stop-color="rgb(5.099487%, 60.231018%, 93.19458%)" offset="0.625"/><stop stop-opacity="1" stop-color="rgb(5.099487%, 60.617065%, 93.2724%)" offset="0.640625"/><stop stop-opacity="1" stop-color="rgb(5.099487%, 61.003113%, 93.351746%)" offset="0.65625"/><stop stop-opacity="1" stop-color="rgb(5.099487%, 61.390686%, 93.429565%)" offset="0.671875"/><stop stop-opacity="1" stop-color="rgb(5.099487%, 61.776733%, 93.508911%)" offset="0.6875"/><stop stop-opacity="1" stop-color="rgb(5.099487%, 62.162781%, 93.586731%)" offset="0.703125"/><stop stop-opacity="1" stop-color="rgb(5.099487%, 62.550354%, 93.664551%)" offset="0.71875"/><stop stop-opacity="1" stop-color="rgb(5.099487%, 62.936401%, 93.743896%)" offset="0.734375"/><stop stop-opacity="1" stop-color="rgb(5.099487%, 63.322449%, 93.821716%)" offset="0.75"/><stop stop-opacity="1" stop-color="rgb(5.099487%, 63.710022%, 93.901062%)" offset="0.765625"/><stop stop-opacity="1" stop-color="rgb(5.099487%, 64.096069%, 93.978882%)" offset="0.78125"/><stop stop-opacity="1" stop-color="rgb(5.099487%, 64.482117%, 94.058228%)" offset="0.796875"/><stop stop-opacity="1" stop-color="rgb(5.099487%, 64.86969%, 94.136047%)" offset="0.8125"/><stop stop-opacity="1" stop-color="rgb(5.099487%, 65.255737%, 94.213867%)" offset="0.824155"/><stop stop-opacity="1" stop-color="rgb(5.099487%, 65.449524%, 94.25354%)" offset="0.828125"/><stop stop-opacity="1" stop-color="rgb(5.099487%, 65.641785%, 94.293213%)" offset="0.84375"/><stop stop-opacity="1" stop-color="rgb(5.099487%, 66.029358%, 94.371033%)" offset="0.859375"/><stop stop-opacity="1" stop-color="rgb(5.099487%, 66.415405%, 94.450378%)" offset="0.875"/><stop stop-opacity="1" stop-color="rgb(5.099487%, 66.801453%, 94.528198%)" offset="0.890625"/><stop stop-opacity="1" stop-color="rgb(5.099487%, 67.189026%, 94.606018%)" offset="0.90625"/><stop stop-opacity="1" stop-color="rgb(5.099487%, 67.575073%, 94.685364%)" offset="0.921875"/><stop stop-opacity="1" stop-color="rgb(5.099487%, 67.961121%, 94.763184%)" offset="0.9375"/><stop stop-opacity="1" stop-color="rgb(5.099487%, 68.348694%, 94.842529%)" offset="0.953125"/><stop stop-opacity="1" stop-color="rgb(5.099487%, 68.734741%, 94.920349%)" offset="0.96875"/><stop stop-opacity="1" stop-color="rgb(5.099487%, 69.122314%, 94.999695%)" offset="0.984375"/><stop stop-opacity="1" stop-color="rgb(5.099487%, 69.508362%, 95.077515%)" offset="1"/></linearGradient><clipPath id="7d74ac5492"><path d="M 65 44 L 66 44 L 66 45 L 65 45 Z M 65 44 " clip-rule="nonzero"/></clipPath><clipPath id="0747ce48ea"><path d="M 65.730469 44.402344 L 65.730469 44.40625 C 65.734375 44.402344 65.734375 44.394531 65.734375 44.390625 C 65.734375 44.394531 65.730469 44.402344 65.730469 44.402344 Z M 65.730469 44.402344 " clip-rule="nonzero"/></clipPath><linearGradient x1="-1899.397152" gradientTransform="matrix(-0.0275915, 0.108309, -0.107236, -0.0278674, -195.072904, 195.960247)" y1="-1943.262173" x2="-1899.467603" gradientUnits="userSpaceOnUse" y2="-1943.391134" id="174e2374c7"><stop stop-opacity="1" stop-color="rgb(5.099487%, 58.894348%, 92.9245%)" offset="0"/><stop stop-opacity="1" stop-color="rgb(5.099487%, 58.8974%, 92.9245%)" offset="0.459526"/><stop stop-opacity="1" stop-color="rgb(5.099487%, 58.901978%, 92.9245%)" offset="0.5"/><stop stop-opacity="1" stop-color="rgb(5.099487%, 58.905029%, 92.9245%)" offset="0.540474"/><stop stop-opacity="1" stop-color="rgb(5.099487%, 58.909607%, 92.926025%)" offset="1"/></linearGradient></defs><g clip-path="url(#854901f8e2)"><g clip-path="url(#ff35d45d3c)"><path fill="url(#f2524b0dba)" d="M 37.519531 37.554688 L 37.519531 55.328125 L 64 55.328125 L 64 37.554688 Z M 37.519531 37.554688 " fill-rule="nonzero"/></g></g><g clip-path="url(#d21b9f836d)"><g clip-path="url(#78a64da53a)"><path fill="url(#5deb9764c3)" d="M 43.164062 48.164062 L 43.164062 76.441406 L 64.804688 76.441406 L 64.804688 48.164062 Z M 43.164062 48.164062 " fill-rule="nonzero"/></g></g><g clip-path="url(#52e4215b59)"><g clip-path="url(#c7fc452b7f)"><path fill="url(#76e0c3f7c6)" d="M 64.765625 38.070312 L 64.765625 46.308594 L 72.660156 46.308594 L 72.660156 38.070312 Z M 64.765625 38.070312 " fill-rule="nonzero"/></g></g><g clip-path="url(#7d74ac5492)"><g clip-path="url(#0747ce48ea)"><path fill="url(#174e2374c7)" d="M 65.738281 44.390625 L 65.730469 44.390625 L 65.726562 44.40625 L 65.734375 44.40625 Z M 65.738281 44.390625 " fill-rule="nonzero"/></g></g><g fill="#0d6fe5" fill-opacity="1"><g transform="translate(74.049732, 68.620557)"><g><path d="M 16.46875 -20 L 16.46875 -17.546875 L 9.828125 -17.546875 L 9.828125 0 L 7.109375 0 L 7.109375 -17.546875 L 0.484375 -17.546875 L 0.484375 -20 Z M 16.46875 -20 "/></g></g></g><g fill="#0d6fe5" fill-opacity="1"><g transform="translate(90.988175, 68.620557)"><g><path d="M 4.71875 0 L 2.109375 0 L 2.109375 -15.765625 L 4.5 -15.765625 L 4.625 -14.421875 L 4.75 -14.421875 C 5.582031 -14.910156 6.410156 -15.273438 7.234375 -15.515625 C 8.066406 -15.765625 8.890625 -15.890625 9.703125 -15.890625 C 10.035156 -15.890625 10.257812 -15.890625 10.375 -15.890625 C 10.5 -15.890625 10.59375 -15.878906 10.65625 -15.859375 L 10.65625 -13.34375 C 10.507812 -13.382812 10.320312 -13.410156 10.09375 -13.421875 C 9.875 -13.429688 9.53125 -13.4375 9.0625 -13.4375 C 8.289062 -13.4375 7.539062 -13.34375 6.8125 -13.15625 C 6.082031 -12.976562 5.382812 -12.707031 4.71875 -12.34375 Z M 4.71875 0 "/></g></g></g><g fill="#0d6fe5" fill-opacity="1"><g transform="translate(102.24857, 68.620557)"><g><path d="M 5.671875 0.25 C 4.054688 0.25 2.867188 -0.132812 2.109375 -0.90625 C 1.359375 -1.6875 0.984375 -2.914062 0.984375 -4.59375 C 0.984375 -6.289062 1.441406 -7.492188 2.359375 -8.203125 C 3.273438 -8.921875 4.828125 -9.28125 7.015625 -9.28125 C 7.742188 -9.28125 8.457031 -9.25 9.15625 -9.1875 C 9.851562 -9.125 10.515625 -9.03125 11.140625 -8.90625 L 11.140625 -10.4375 C 11.140625 -11.601562 10.835938 -12.441406 10.234375 -12.953125 C 9.640625 -13.460938 8.6875 -13.71875 7.375 -13.71875 C 6.394531 -13.71875 5.53125 -13.679688 4.78125 -13.609375 C 4.039062 -13.535156 3.296875 -13.410156 2.546875 -13.234375 L 2.546875 -15.5 C 3.398438 -15.71875 4.269531 -15.867188 5.15625 -15.953125 C 6.039062 -16.035156 7.046875 -16.078125 8.171875 -16.078125 C 10.054688 -16.078125 11.457031 -15.632812 12.375 -14.75 C 13.289062 -13.875 13.75 -12.507812 13.75 -10.65625 L 13.75 0 L 11.359375 0 L 11.234375 -1.46875 L 11.171875 -1.46875 C 10.523438 -0.957031 9.695312 -0.539062 8.6875 -0.21875 C 7.675781 0.09375 6.671875 0.25 5.671875 0.25 Z M 7.3125 -7.140625 C 5.863281 -7.140625 4.859375 -6.960938 4.296875 -6.609375 C 3.734375 -6.265625 3.453125 -5.644531 3.453125 -4.75 C 3.453125 -3.8125 3.679688 -3.132812 4.140625 -2.71875 C 4.609375 -2.3125 5.375 -2.109375 6.4375 -2.109375 C 7.269531 -2.109375 8.125 -2.234375 9 -2.484375 C 9.875 -2.742188 10.585938 -3.066406 11.140625 -3.453125 L 11.140625 -6.828125 C 10.429688 -6.929688 9.773438 -7.007812 9.171875 -7.0625 C 8.566406 -7.113281 7.945312 -7.140625 7.3125 -7.140625 Z M 7.3125 -7.140625 "/></g></g></g><g fill="#0d6fe5" fill-opacity="1"><g transform="translate(117.974841, 68.620557)"><g><path d="M 12.578125 -15.765625 L 15.4375 -15.765625 L 9.375 0 L 6.375 0 L 0.3125 -15.765625 L 3.21875 -15.765625 L 7.90625 -2.390625 Z M 12.578125 -15.765625 "/></g></g></g><g fill="#0d6fe5" fill-opacity="1"><g transform="translate(133.733017, 68.620557)"><g><path d="M 13.9375 -3.0625 L 13.9375 -0.859375 C 13.382812 -0.566406 12.570312 -0.304688 11.5 -0.078125 C 10.425781 0.140625 9.335938 0.25 8.234375 0.25 C 5.765625 0.25 4 -0.382812 2.9375 -1.65625 C 1.875 -2.9375 1.34375 -5.046875 1.34375 -7.984375 C 1.34375 -10.804688 1.894531 -12.859375 3 -14.140625 C 4.101562 -15.429688 5.867188 -16.078125 8.296875 -16.078125 C 10.546875 -16.078125 12.160156 -15.570312 13.140625 -14.5625 C 14.117188 -13.550781 14.609375 -11.867188 14.609375 -9.515625 C 14.609375 -9.085938 14.597656 -8.691406 14.578125 -8.328125 C 14.554688 -7.960938 14.515625 -7.523438 14.453125 -7.015625 L 3.984375 -7.015625 C 4.003906 -5.273438 4.359375 -4.03125 5.046875 -3.28125 C 5.742188 -2.539062 6.941406 -2.171875 8.640625 -2.171875 C 9.554688 -2.171875 10.515625 -2.253906 11.515625 -2.421875 C 12.515625 -2.597656 13.320312 -2.8125 13.9375 -3.0625 Z M 12.21875 -9.859375 C 12.195312 -11.265625 11.890625 -12.257812 11.296875 -12.84375 C 10.703125 -13.425781 9.703125 -13.71875 8.296875 -13.71875 C 6.722656 -13.71875 5.609375 -13.378906 4.953125 -12.703125 C 4.304688 -12.035156 3.984375 -10.863281 3.984375 -9.1875 L 12.1875 -9.1875 C 12.1875 -9.226562 12.191406 -9.328125 12.203125 -9.484375 C 12.210938 -9.648438 12.21875 -9.773438 12.21875 -9.859375 Z M 12.21875 -9.859375 "/></g></g></g><g fill="#0d6fe5" fill-opacity="1"><g transform="translate(149.61879, 68.620557)"><g><path d="M 4.71875 -21.21875 L 4.71875 0 L 2.109375 0 L 2.109375 -21.21875 Z M 4.71875 -21.21875 "/></g></g></g><g fill="#21cd91" fill-opacity="1"><g transform="translate(156.438434, 68.620557)"><g><path d="M 5.015625 0 L 2.296875 0 L 2.296875 -20 L 5.015625 -20 L 5.015625 -11.390625 L 15.46875 -11.390625 L 15.46875 -20 L 18.1875 -20 L 18.1875 0 L 15.46875 0 L 15.46875 -8.90625 L 5.015625 -8.90625 Z M 5.015625 0 "/></g></g></g><g fill="#21cd91" fill-opacity="1"><g transform="translate(176.917679, 68.620557)"><g><path d="M 7.203125 0.25 C 5.460938 0.25 4.15625 -0.179688 3.28125 -1.046875 C 2.414062 -1.921875 1.984375 -3.234375 1.984375 -4.984375 L 1.984375 -15.765625 L 4.59375 -15.765625 L 4.59375 -5.296875 C 4.59375 -4.210938 4.867188 -3.425781 5.421875 -2.9375 C 5.972656 -2.445312 6.847656 -2.203125 8.046875 -2.203125 C 8.765625 -2.203125 9.488281 -2.289062 10.21875 -2.46875 C 10.957031 -2.65625 11.695312 -2.9375 12.4375 -3.3125 L 12.4375 -15.765625 L 15.0625 -15.765625 L 15.0625 0 L 12.671875 0 L 12.546875 -1.3125 L 12.46875 -1.3125 C 11.363281 -0.738281 10.40625 -0.332031 9.59375 -0.09375 C 8.789062 0.132812 7.992188 0.25 7.203125 0.25 Z M 7.203125 0.25 "/></g></g></g><g fill="#21cd91" fill-opacity="1"><g transform="translate(194.079409, 68.620557)"><g><path d="M 9.890625 -16.078125 C 12.035156 -16.078125 13.570312 -15.441406 14.5 -14.171875 C 15.425781 -12.910156 15.890625 -10.847656 15.890625 -7.984375 C 15.890625 -5.046875 15.3125 -2.9375 14.15625 -1.65625 C 13.007812 -0.382812 11.085938 0.25 8.390625 0.25 C 7.179688 0.25 6.039062 0.179688 4.96875 0.046875 C 3.90625 -0.0859375 2.941406 -0.296875 2.078125 -0.578125 L 2.078125 -21.21875 L 4.6875 -21.21875 L 4.6875 -14.671875 C 5.4375 -15.117188 6.253906 -15.460938 7.140625 -15.703125 C 8.035156 -15.953125 8.953125 -16.078125 9.890625 -16.078125 Z M 13.265625 -7.984375 C 13.265625 -10.128906 12.960938 -11.617188 12.359375 -12.453125 C 11.753906 -13.296875 10.625 -13.71875 8.96875 -13.71875 C 8.195312 -13.71875 7.4375 -13.613281 6.6875 -13.40625 C 5.945312 -13.207031 5.28125 -12.929688 4.6875 -12.578125 L 4.6875 -2.578125 C 5.15625 -2.453125 5.6875 -2.351562 6.28125 -2.28125 C 6.875 -2.207031 7.523438 -2.171875 8.234375 -2.171875 C 10.210938 -2.171875 11.546875 -2.582031 12.234375 -3.40625 C 12.921875 -4.238281 13.265625 -5.765625 13.265625 -7.984375 Z M 13.265625 -7.984375 "/></g></g></g></svg>